<svg width="500" height="500" viewBox="0 0 500 500" fill="none" xmlns="http://www.w3.org/2000/svg">
<path d="M469.25 347.503V152.263C469.241 143.704 466.983 135.297 462.703 127.887C458.422 120.476 452.269 114.322 444.861 110.043L274.139 12.4227C266.724 8.13875 258.312 5.88342 249.75 5.88342C241.188 5.88342 232.776 8.13875 225.361 12.4227L54.6389 110.043C47.2311 114.322 41.0782 120.476 36.7975 127.887C32.5168 135.297 30.2588 143.704 30.25 152.263V347.503C30.2588 356.063 32.5168 364.47 36.7975 371.88C41.0782 379.291 47.2311 385.444 54.6389 389.724L225.361 487.344C232.776 491.628 241.188 493.883 249.75 493.883C258.312 493.883 266.724 491.628 274.139 487.344L444.861 389.724C452.269 385.444 458.422 379.291 462.703 371.88C466.983 364.47 469.241 356.063 469.25 347.503Z" fill="#492F66" stroke="#3B186D" stroke-width="4" stroke-linecap="round" stroke-linejoin="round"/>
<path d="M316.028 146.971H337.928V356.971H316.028V146.971ZM184.628 356.971H162.428V146.971H184.628V356.971ZM318.128 260.071H182.228V240.571H318.128V260.071Z" fill="#D686FF"/>
</svg>
